<svg width="35" height="33" viewBox="0 0 35 33" fill="none" xmlns="http://www.w3.org/2000/svg">
<path d="M34.9346 15.8489C34.4759 13.0306 31.1986 11.5886 28.577 12.7684L25.8241 14.0136C23.2023 15.1935 20.2531 15.1935 17.6312 14.0136L14.8783 12.7684C12.2565 11.5886 8.97944 13.0306 8.52073 15.8489C8.45508 16.0454 8.45508 16.3076 8.45508 16.5698C8.45508 16.7663 8.45508 17.0285 8.52073 17.2907C8.97944 20.109 12.2567 21.5511 14.8783 20.3712L17.6312 19.126C20.2531 17.9462 23.2023 17.9462 25.8241 19.126L28.577 20.3712C31.1988 21.5511 34.4759 20.109 34.9346 17.2907C35 17.0942 35 16.832 35 16.5698C35 16.3733 35 16.1111 34.9346 15.8489Z" fill="#FD6262"/>
<path d="M6.42361 8.18043L9.17652 6.93518C11.7983 5.75536 14.7476 5.75536 17.3694 6.93518L20.1223 8.18043C22.7441 9.36025 26.0212 7.91825 26.4799 5.0999C26.5453 4.90338 26.5453 4.64119 26.5453 4.37901C26.5453 4.18248 26.5453 3.9203 26.4799 3.65812C26.0212 0.839772 22.7439 -0.60223 20.1223 0.57759L17.3694 1.82285C14.7476 3.00267 11.7983 3.00267 9.17652 1.82285L6.42361 0.57759C3.80179 -0.60223 0.52473 0.774116 0.0660215 3.65812C0.000366165 3.85465 0.000366211 4.11683 0.000366211 4.37901C0.000366211 4.57576 0.000366165 4.83772 0.0660215 5.0999C0.52473 7.91825 3.80179 9.36025 6.42361 8.18043Z" fill="#FD6262"/>
<path d="M20.1219 24.8282L17.369 26.0735C14.7472 27.2533 11.798 27.2533 9.17616 26.0735L6.42324 24.8282C3.80142 23.6484 0.524364 25.0904 0.0656553 27.9088C-4.58086e-08 28.1053 0 28.3675 0 28.6297C0 28.8264 -4.58086e-08 29.0884 0.0656553 29.3505C0.524364 32.1689 3.80164 33.6109 6.42324 32.4311L9.17616 31.1858C11.798 30.006 14.7472 30.006 17.369 31.1858L20.1219 32.4311C22.7438 33.6109 26.0208 32.1689 26.4795 29.3505C26.545 29.1538 26.545 28.8918 26.545 28.6297C26.545 28.4331 26.545 28.1709 26.4795 27.9088C26.0208 25.0902 22.7435 23.6484 20.1219 24.8282Z" fill="#FD6262"/>
</svg>
